<svg width="37" height="36" viewBox="0 0 37 36" fill="none" xmlns="http://www.w3.org/2000/svg">
<g clip-path="url(#clip0_573_1551)">
<path d="M9.98135 14.0502H10.2779C11.4198 14.0502 12.354 14.9739 12.354 16.1028V26.3659C12.354 27.4948 11.4198 28.4185 10.2779 28.4185H9.98135C8.83951 28.4185 7.90527 27.4948 7.90527 26.3659V16.1028C7.90527 14.9739 8.83951 14.0502 9.98135 14.0502ZM18.2857 7.89243C19.4275 7.89243 20.3617 8.8161 20.3617 9.94503V26.3659C20.3617 27.4948 19.4275 28.4185 18.2857 28.4185C17.1438 28.4185 16.2096 27.4948 16.2096 26.3659V9.94503C16.2096 8.8161 17.1438 7.89243 18.2857 7.89243ZM26.59 19.6216C27.7318 19.6216 28.6661 20.5453 28.6661 21.6742V26.3659C28.6661 27.4948 27.7318 28.4185 26.59 28.4185C25.4481 28.4185 24.5139 27.4948 24.5139 26.3659V21.6742C24.5139 20.5453 25.4481 19.6216 26.59 19.6216Z" fill="white"/>
</g>
<defs>
<clipPath id="clip0_573_1551">
<rect width="35.5899" height="35.1875" fill="currentColor" transform="translate(0.490967 0.561676)"/>
</clipPath>
</defs>
</svg>
