<svg width="27" height="26" viewBox="0 0 27 26" fill="none" xmlns="http://www.w3.org/2000/svg">
<path d="M10.1966 23.7143C8.1015 23.7143 6.31342 22.9821 4.83239 21.5178C3.35136 20.0536 2.61084 18.2857 2.61084 16.2143C2.61084 14.1428 3.35136 12.375 4.83239 10.9107C6.31342 9.44642 8.1015 8.71428 10.1966 8.71428C12.2917 8.71428 14.0798 9.44642 15.5608 10.9107C17.0419 12.375 17.7824 14.1428 17.7824 16.2143C17.7824 18.2857 17.0419 20.0536 15.5608 21.5178C14.0798 22.9821 12.2917 23.7143 10.1966 23.7143ZM10.1966 21.5714C11.6957 21.5714 12.9737 21.0489 14.0307 20.0039C15.0876 18.9589 15.6157 17.6957 15.615 16.2143C15.615 14.7321 15.0865 13.4686 14.0296 12.4236C12.9726 11.3786 11.695 10.8564 10.1966 10.8571C8.69752 10.8571 7.4195 11.3796 6.36255 12.4246C5.3056 13.4696 4.77748 14.7328 4.7782 16.2143C4.7782 17.6964 5.30668 18.96 6.36363 20.005C7.42058 21.05 8.69824 21.5721 10.1966 21.5714ZM18.8119 16.9643C18.848 16.8571 18.8661 16.7411 18.8661 16.6161V16.2143C18.8661 13.8393 18.0219 11.8168 16.3335 10.1468C14.6451 8.47678 12.5995 7.64213 10.1966 7.64285H9.79023C9.6638 7.64285 9.54641 7.66071 9.43804 7.69642C9.90763 6.12499 10.7973 4.83035 12.1071 3.81249C13.417 2.79463 14.9475 2.28571 16.6987 2.28571C18.7938 2.28571 20.5819 3.01785 22.0629 4.48213C23.544 5.94642 24.2845 7.71428 24.2845 9.78571C24.2845 11.5178 23.7697 13.0311 22.7402 14.3253C21.7107 15.6196 20.4013 16.4993 18.8119 16.9643Z" fill="#4318FF"/>
</svg>
