<svg width="27" height="26" viewBox="0 0 27 26" fill="none" xmlns="http://www.w3.org/2000/svg">
<path d="M12.4687 18.3571H8.13399C6.63489 18.3571 5.35687 17.8346 4.29992 16.7896C3.24297 15.7446 2.71485 14.4814 2.71558 13C2.71558 11.5179 3.24405 10.2543 4.301 9.20928C5.35796 8.16428 6.63562 7.64214 8.13399 7.64285H12.4687V9.78571H8.13399C7.23092 9.78571 6.46331 10.0982 5.83116 10.7232C5.19902 11.3482 4.88294 12.1071 4.88294 13C4.88294 13.8929 5.19902 14.6518 5.83116 15.2768C6.46331 15.9018 7.23092 16.2143 8.13399 16.2143H12.4687V18.3571ZM9.21767 14.0714V11.9286H17.8871V14.0714H9.21767ZM14.6361 18.3571V16.2143H18.9708C19.8739 16.2143 20.6415 15.9018 21.2736 15.2768C21.9058 14.6518 22.2219 13.8929 22.2219 13C22.2219 12.1071 21.9058 11.3482 21.2736 10.7232C20.6415 10.0982 19.8739 9.78571 18.9708 9.78571H14.6361V7.64285H18.9708C20.4699 7.64285 21.7479 8.16535 22.8049 9.21035C23.8618 10.2554 24.3899 11.5186 24.3892 13C24.3892 14.4821 23.8607 15.7457 22.8038 16.7907C21.7468 17.8357 20.4692 18.3579 18.9708 18.3571H14.6361Z" fill="#4318FF"/>
</svg>
