<svg width="56" height="56" viewBox="0 0 56 56" fill="none" xmlns="http://www.w3.org/2000/svg">
<circle cx="28" cy="28" r="28" fill="#F4F7FE"/>
<path d="M27.9999 11.3333C18.8333 11.3333 11.3333 18.8333 11.3333 28C11.3333 37.1666 18.8333 44.6666 27.9999 44.6666C37.1666 44.6666 44.6666 37.1666 44.6666 28C44.6666 18.8333 37.1666 11.3333 27.9999 11.3333ZM22.7166 19.75C24.3499 19.75 25.6666 21.0666 25.6666 22.7166C25.6666 24.35 24.3499 25.6666 22.7166 25.6666C21.0666 25.6666 19.7499 24.35 19.7499 22.7166C19.7499 21.0666 21.0666 19.75 22.7166 19.75ZM33.3666 36.3333C31.7333 36.3333 30.4166 35 30.4166 33.3666C30.4166 31.7333 31.7333 30.4166 33.3666 30.4166C34.9999 30.4166 36.3333 31.7333 36.3333 33.3666C36.3333 35 34.9999 36.3333 33.3666 36.3333ZM22.1666 36.3833L19.6666 33.8833L33.8833 19.6666L36.3833 22.1666L22.1666 36.3833Z" fill="#4318FF"/>
</svg>
