<svg width="56" height="56" viewBox="0 0 56 56" fill="none" xmlns="http://www.w3.org/2000/svg">
<circle cx="28" cy="28" r="28" fill="#F4F7FE"/>
<g clip-path="url(#clip0_573_1723)">
<path d="M25 38C23.0667 38 21.4167 37.3167 20.05 35.95C18.6833 34.5833 18 32.9333 18 31C18 29.0667 18.6833 27.4167 20.05 26.05C21.4167 24.6833 23.0667 24 25 24C26.9333 24 28.5833 24.6833 29.95 26.05C31.3167 27.4167 32 29.0667 32 31C32 32.9333 31.3167 34.5833 29.95 35.95C28.5833 37.3167 26.9333 38 25 38ZM25 36C26.3833 36 27.5627 35.5123 28.538 34.537C29.5133 33.5617 30.0007 32.3827 30 31C30 29.6167 29.5123 28.4373 28.537 27.462C27.5617 26.4867 26.3827 25.9993 25 26C23.6167 26 22.4373 26.4877 21.462 27.463C20.4867 28.4383 19.9993 29.6173 20 31C20 32.3833 20.4877 33.5627 21.463 34.538C22.4383 35.5133 23.6173 36.0007 25 36ZM32.95 31.7C32.9833 31.6 33 31.4917 33 31.375V31C33 28.7833 32.221 26.8957 30.663 25.337C29.105 23.7783 27.2173 22.9993 25 23H24.625C24.5083 23 24.4 23.0167 24.3 23.05C24.7333 21.5833 25.5543 20.375 26.763 19.425C27.9717 18.475 29.384 18 31 18C32.9333 18 34.5833 18.6833 35.95 20.05C37.3167 21.4167 38 23.0667 38 25C38 26.6167 37.525 28.029 36.575 29.237C35.625 30.445 34.4167 31.266 32.95 31.7Z" fill="#4318FF"/>
</g>
<defs>
<clipPath id="clip0_573_1723">
<rect width="32.8417" height="32.8417" fill="white" transform="translate(11.5264 11.7242)"/>
</clipPath>
</defs>
</svg>
