<svg width="56" height="56" viewBox="0 0 56 56" fill="none" xmlns="http://www.w3.org/2000/svg">
<circle cx="28" cy="28" r="28" fill="#F4F7FE"/>
<g clip-path="url(#clip0_573_1745)">
<path d="M27.6734 26.6398C24.5672 25.8325 23.5682 24.9977 23.5682 23.6978C23.5682 22.2062 24.9503 21.1662 27.2629 21.1662C29.206 21.1662 30.1776 21.9051 30.5334 23.082C30.6976 23.6293 31.1492 24.0399 31.7239 24.0399H32.1344C33.0376 24.0399 33.6807 23.1504 33.366 22.302C32.7913 20.6873 31.4502 19.3462 29.3155 18.8262V17.882C29.3155 16.7463 28.3987 15.8294 27.2629 15.8294C26.1271 15.8294 25.2103 16.7463 25.2103 17.882V18.7852C22.5556 19.3599 20.4209 21.0841 20.4209 23.7251C20.4209 26.8861 23.0345 28.4598 26.8524 29.3766C30.2734 30.1977 30.9576 31.4019 30.9576 32.6745C30.9576 33.6187 30.2871 35.1239 27.2629 35.1239C25.005 35.1239 23.8419 34.3166 23.3903 33.1671C23.1851 32.6334 22.7198 32.2503 22.1588 32.2503H21.7756C20.8588 32.2503 20.2156 33.1808 20.5577 34.0292C21.3377 35.9313 23.1577 37.0534 25.2103 37.4913V38.4081C25.2103 39.5439 26.1271 40.4607 27.2629 40.4607C28.3987 40.4607 29.3155 39.5439 29.3155 38.4081V37.5186C31.9839 37.0123 34.1049 35.466 34.1049 32.6608C34.1049 28.7745 30.7797 27.4472 27.6734 26.6398Z" fill="#4318FF"/>
</g>
<defs>
<clipPath id="clip0_573_1745">
<rect width="32.8417" height="32.8417" fill="white" transform="translate(11.5264 11.7242)"/>
</clipPath>
</defs>
</svg>
