<svg width="56" height="56" viewBox="0 0 56 56" fill="none" xmlns="http://www.w3.org/2000/svg">
<circle cx="28" cy="28" r="28" fill="#F4F7FE"/>
<g clip-path="url(#clip0_666_401)">
<path d="M41.8774 27.5625C41.7764 27.2273 41.5964 26.9212 41.3524 26.67C41.1663 26.4692 40.9273 26.3248 40.6629 26.2535C40.7924 26.4583 40.9097 26.6945 40.9972 26.9465C41.0952 27.2038 41.1582 27.4785 41.1774 27.7638C41.2069 28.0102 41.2069 28.2593 41.1774 28.5058C41.1229 28.3231 41.0389 28.1505 40.9289 27.9948C40.7122 27.7019 40.4226 27.4708 40.0889 27.3245C39.7193 27.1581 39.3012 27.1343 38.9151 27.2577C38.529 27.3811 38.2022 27.643 37.9977 27.993C37.9102 28.1365 37.8402 28.2923 37.7877 28.4585C35.7192 25.0145 31.9969 22.7343 27.7409 22.7343C27.5239 22.7343 27.3087 22.7395 27.0952 22.7518C25.7748 22.7542 24.461 22.9386 23.1909 23.2995C23.0824 22.54 22.0849 21 17.4999 21L18.8999 25.3925C18.0196 26.1041 17.2796 26.9736 16.7177 27.9563L13.9999 28C13.9999 28 13.7024 35 15.7499 35H16.6949C17.3383 36.0905 18.199 37.037 19.2237 37.7808L19.2499 42H21.1399C23.4324 42 24.4999 42 24.4999 40.6875V40.005C26.2651 40.3321 28.0758 40.3274 29.8392 39.991L29.7499 40.6875C29.7499 42 30.8349 42 33.1449 42H34.9999V37.8175C36.6409 36.6798 37.8219 34.9937 38.3302 33.0628C38.4299 33.0155 38.5297 33.0208 38.6312 33.0208C38.7327 33.0208 38.8324 33.0155 38.9322 33.0033C39.3714 32.9228 39.7722 32.7513 40.1204 32.508C40.5911 32.175 40.9513 31.7088 41.1547 31.1693C41.2037 31.0065 41.2404 30.835 41.2649 30.6583L41.2667 30.6408C41.6535 30.1823 41.9177 29.6083 41.9999 28.9765C42.0715 28.4938 42.0283 28.001 41.8739 27.538L41.8774 27.5625ZM20.1424 27.5625C20.4905 27.5625 20.8244 27.7008 21.0705 27.9469C21.3167 28.1931 21.4549 28.5269 21.4549 28.875C21.4549 29.2231 21.3167 29.557 21.0705 29.8031C20.8244 30.0492 20.4905 30.1875 20.1424 30.1875C19.7944 30.1875 19.4605 30.0492 19.2144 29.8031C18.9682 29.557 18.8299 29.2231 18.8299 28.875C18.8299 28.5269 18.9682 28.1931 19.2144 27.9469C19.4605 27.7008 19.7944 27.5625 20.1424 27.5625ZM24.2899 26.25C24.0923 26.3134 23.8786 26.3048 23.6867 26.2257C23.4949 26.1465 23.3372 26.002 23.2417 25.8178C23.2119 25.7259 23.202 25.6289 23.2125 25.5329C23.223 25.437 23.2538 25.3443 23.3027 25.2611C23.3517 25.178 23.4177 25.1061 23.4965 25.0503C23.5753 24.9945 23.665 24.9561 23.7597 24.9375C24.9107 24.6615 26.092 24.5322 27.2754 24.5525L27.4522 24.5508C28.6282 24.5508 29.7692 24.6908 30.8629 24.9568C31.0834 24.9988 31.3214 25.2753 31.3214 25.6078C31.3214 25.6785 31.3101 25.7488 31.2882 25.816C31.2269 25.9295 31.1405 26.0274 31.0356 26.1023C30.9306 26.1773 30.8099 26.2272 30.6827 26.2483H30.4149C29.4373 26.0129 28.435 25.8954 27.4294 25.8983H27.2737C26.2149 25.8983 25.1859 26.026 24.2007 26.2675L24.2899 26.25ZM39.5149 31.3775C39.2788 31.5493 39.0084 31.668 38.7222 31.7258L38.4999 31.7275V30.9575C38.7887 31.1763 39.1544 31.3075 39.5499 31.3075H39.5867L39.5149 31.3775ZM39.6549 30.1875C39.4923 30.2103 39.3266 30.1805 39.1821 30.1024C39.0375 30.0243 38.9218 29.9021 38.8517 29.7535C38.7715 29.6007 38.7298 29.4306 38.7301 29.2581C38.7304 29.0855 38.7727 28.9156 38.8534 28.763C38.9366 28.6479 39.0592 28.5672 39.1978 28.5362C39.3365 28.5053 39.4817 28.5262 39.6059 28.595C39.7645 28.6559 39.9009 28.7634 39.9971 28.9034C40.0934 29.0433 40.1449 29.2092 40.1449 29.379C40.1795 29.6217 40.1789 29.8698 40.1432 30.1123C39.9807 30.1436 39.8151 30.1565 39.6497 30.1508L39.6549 30.1875ZM27.9999 19.25H26.2499V18.9525H26.6874V17.045H26.2499L27.2124 16.0825H27.5624V18.9525H27.9999V19.25Z" fill="#4318FF"/>
<path d="M27.125 15.3125C27.4698 15.3126 27.8113 15.3806 28.1298 15.5127C28.4484 15.6448 28.7378 15.8383 28.9815 16.0822C29.2253 16.3261 29.4186 16.6157 29.5505 16.9343C29.6823 17.2529 29.7501 17.5944 29.75 17.9392C29.7499 18.2841 29.6819 18.6255 29.5498 18.9441C29.4177 19.2626 29.2242 19.552 28.9803 19.7958C28.7364 20.0395 28.4468 20.2328 28.1282 20.3647C27.8096 20.4966 27.4681 20.5644 27.1233 20.5642C26.4268 20.564 25.759 20.2871 25.2667 19.7945C24.7744 19.3019 24.498 18.6339 24.4983 17.9375C24.4985 17.2411 24.7754 16.5733 25.268 16.081C25.7606 15.5887 26.4286 15.3123 27.125 15.3125ZM27.125 14C26.0807 14 25.0792 14.4148 24.3408 15.1533C23.6023 15.8917 23.1875 16.8932 23.1875 17.9375C23.1875 18.9818 23.6023 19.9833 24.3408 20.7217C25.0792 21.4602 26.0807 21.875 27.125 21.875C28.1693 21.875 29.1708 21.4602 29.9092 20.7217C30.6477 19.9833 31.0625 18.9818 31.0625 17.9375C31.0625 16.8932 30.6477 15.8917 29.9092 15.1533C29.1708 14.4148 28.1693 14 27.125 14Z" fill="#4318FF"/>
</g>
<defs>
<clipPath id="clip0_666_401">
<rect width="28" height="28" fill="white" transform="translate(14 14)"/>
</clipPath>
</defs>
</svg>
