<svg width="56" height="56" viewBox="0 0 56 56" fill="none" xmlns="http://www.w3.org/2000/svg">
<circle cx="28" cy="28" r="28" fill="#F4F7FE"/>
<g clip-path="url(#clip0_573_1734)">
<path d="M27 33H23C21.6167 33 20.4373 32.5123 19.462 31.537C18.4867 30.5617 17.9993 29.3827 18 28C18 26.6167 18.4877 25.4373 19.463 24.462C20.4383 23.4867 21.6173 22.9993 23 23H27V25H23C22.1667 25 21.4583 25.2917 20.875 25.875C20.2917 26.4583 20 27.1667 20 28C20 28.8333 20.2917 29.5417 20.875 30.125C21.4583 30.7083 22.1667 31 23 31H27V33ZM24 29V27H32V29H24ZM29 33V31H33C33.8333 31 34.5417 30.7083 35.125 30.125C35.7083 29.5417 36 28.8333 36 28C36 27.1667 35.7083 26.4583 35.125 25.875C34.5417 25.2917 33.8333 25 33 25H29V23H33C34.3833 23 35.5627 23.4877 36.538 24.463C37.5133 25.4383 38.0007 26.6173 38 28C38 29.3833 37.5123 30.5627 36.537 31.538C35.5617 32.5133 34.3827 33.0007 33 33H29Z" fill="#4318FF"/>
</g>
<defs>
<clipPath id="clip0_573_1734">
<rect width="32.8417" height="32.8417" fill="white" transform="translate(11.5264 11.7242)"/>
</clipPath>
</defs>
</svg>
