<svg width="56" height="56" viewBox="0 0 56 56" fill="none" xmlns="http://www.w3.org/2000/svg">
<circle cx="28" cy="28" r="28" fill="#F4F7FE"/>
<path d="M40.3906 15.125H14.6094C14.1991 15.125 13.8057 15.288 13.5156 15.5781C13.2255 15.8682 13.0625 16.2616 13.0625 16.6719V38.3281C13.0625 38.7384 13.2255 39.1318 13.5156 39.4219C13.8057 39.712 14.1991 39.875 14.6094 39.875H40.3906C40.8009 39.875 41.1943 39.712 41.4844 39.4219C41.7745 39.1318 41.9375 38.7384 41.9375 38.3281V16.6719C41.9375 16.2616 41.7745 15.8682 41.4844 15.5781C41.1943 15.288 40.8009 15.125 40.3906 15.125ZM32.3739 19.2629C33.0073 19.2049 33.6431 19.3434 34.1949 19.6597C34.7466 19.976 35.1875 20.4547 35.4574 21.0305C35.7274 21.6063 35.8133 22.2514 35.7035 22.8778C35.5937 23.5043 35.2936 24.0816 34.8438 24.5313C34.3941 24.9811 33.8168 25.2812 33.1903 25.391C32.5639 25.5008 31.9188 25.4149 31.343 25.1449C30.7672 24.875 30.2885 24.4341 29.9722 23.8824C29.6559 23.3306 29.5174 22.6948 29.5754 22.0614C29.6414 21.3415 29.9574 20.6673 30.4686 20.1561C30.9799 19.6449 31.654 19.3289 32.3739 19.2629ZM15.8984 37.8125C15.6933 37.8125 15.4966 37.731 15.3515 37.586C15.2065 37.4409 15.125 37.2442 15.125 37.0391V31.391L23.4163 24.0195L29.665 30.2554L22.1098 37.8125H15.8984ZM39.875 37.0391C39.875 37.2442 39.7935 37.4409 39.6485 37.586C39.5034 37.731 39.3067 37.8125 39.1016 37.8125H25.0269L34.6646 28.1748L39.875 32.517V37.0391Z" fill="#4318FF"/>
</svg>
